<svg width="100" height="100" viewBox="0 0 100 100" fill="none" xmlns="http://www.w3.org/2000/svg">
<rect width="100" height="100" fill="white"/>
<path d="M85.9985 83C87.6554 83 88.9985 84.3432 88.9985 86C88.9985 87.6568 87.6554 89 85.9985 89H13.9985C12.3417 89 10.9985 87.6569 10.9985 86C10.9985 84.3431 12.3417 83 13.9985 83H85.9985ZM63.3911 11C64.1872 10.9999 64.9514 11.3159 65.5142 11.8789L80.1235 26.4951C81.2945 27.6666 81.2945 29.5658 80.1235 30.7373L38.7583 72.1211C38.1957 72.684 37.4321 73 36.6362 73H22.0015C20.3448 72.9998 19.0016 71.6567 19.0015 70V55.4395C19.0015 54.6445 19.3176 53.8818 19.8794 53.3193L61.269 11.8799L61.4897 11.6807C62.0235 11.2428 62.6947 11.0002 63.3911 11ZM25.0015 56.6807V67H35.3931L73.7593 28.6162L63.3921 18.2441L25.0015 56.6807Z" fill="black"/>
</svg>
