<svg width="100" height="100" viewBox="0 0 100 100" fill="none" xmlns="http://www.w3.org/2000/svg">
<rect width="100" height="100" fill="white"/>
<path d="M49.9624 80.9529C42.7705 80.9615 35.6765 79.2958 29.2488 76.0881C23.8631 73.3686 18.9603 69.7929 14.7341 65.5023C10.1801 60.9844 6.3285 55.8173 3.3061 50.1711C3.11027 49.7804 3.00572 49.3509 3.00023 48.9144C2.99474 48.478 3.08847 48.046 3.27441 47.6506C6.11802 41.9637 9.85119 36.7614 14.3347 32.2377C17.9613 28.5111 22.109 25.3236 26.6501 22.7732L30.9728 27.0706C26.3465 29.4547 22.1436 32.5751 18.5307 36.3083C14.8714 40.0316 11.7486 44.241 9.25143 48.8163C11.9376 53.4565 15.2258 57.7256 19.0314 61.5134C22.9903 65.7466 27.7738 69.1351 33.0912 71.4728C38.4086 73.8105 44.1486 75.0485 49.9624 75.1116C57.9823 75.1151 65.8245 72.7606 72.5015 68.3441L76.7229 72.5407C74.7908 73.8569 72.7706 75.0399 70.6762 76.0821C64.2487 79.2911 57.1547 80.9594 49.9624 80.9529ZM83.6123 67.0207L79.4609 62.8931C79.9236 62.465 80.4052 62.0047 80.8871 61.5199C84.6933 57.7325 87.9816 53.4633 90.667 48.8226C88.1281 44.1978 84.9607 39.9423 81.2546 36.176C76.1051 30.674 69.584 26.6228 62.352 24.4329C55.1204 22.243 47.4351 21.9921 40.0746 23.7058L35.3336 19.0176C40.0634 17.5207 44.9986 16.7639 49.9624 16.7744C57.2918 16.7433 64.5286 18.4065 71.1004 21.6326C76.499 24.3275 81.3981 27.9134 85.5901 32.2377C90.0731 36.7618 93.8061 41.964 96.6505 47.6506C96.8282 48.0417 96.9167 48.467 96.9103 48.8962C96.9039 49.3253 96.8022 49.7477 96.6125 50.1333C93.5955 55.7876 89.7505 60.9651 85.2034 65.4958C84.6898 66.0064 84.1639 66.5165 83.6379 67.0082L83.6123 67.0207ZM49.9624 66.3907C46.2968 66.3976 42.7206 65.2669 39.7327 63.1559C36.7448 61.045 34.4943 58.0597 33.2953 54.6161C32.0962 51.1725 32.0085 47.4427 33.0443 43.9471C34.0801 40.4516 36.1878 37.3647 39.0732 35.1173L43.2628 39.2825C41.8575 40.2583 40.6844 41.5284 39.826 43.0034C38.9675 44.4785 38.4447 46.1226 38.2941 47.8201C38.1435 49.5177 38.369 51.2274 38.9545 52.829C39.5401 54.4306 40.4716 55.8852 41.6834 57.0905C42.8953 58.2954 44.358 59.2221 45.9687 59.8048C47.5795 60.388 49.2993 60.6125 51.0067 60.4635C52.7145 60.3145 54.3684 59.7954 55.8524 58.9426C57.3363 58.0897 58.6147 56.9239 59.5965 55.5272L63.7864 59.6923C62.1435 61.7754 60.0448 63.4591 57.649 64.6155C55.2537 65.7719 52.6252 66.3701 49.9624 66.3654V66.3907ZM67.4434 50.9713L60.7754 44.3172C59.5743 41.5312 57.341 39.3111 54.5385 38.1167L47.8645 31.4878C48.5605 31.4048 49.2612 31.3627 49.9624 31.3618C52.4508 31.3631 54.9106 31.8885 57.1799 32.9035C59.4491 33.9184 61.4765 35.3998 63.128 37.2502C64.7794 39.1005 66.018 41.2777 66.7619 43.6385C67.5058 45.9991 67.7382 48.4897 67.4434 50.9461V50.9713Z" fill="black"/>
<path d="M15.3515 14.0869C16.7934 12.6377 18.2354 12.6377 19.6773 14.0869L84.5607 79.2952C86.0027 80.744 86.0027 82.1933 84.5607 83.6425C83.1186 85.0918 81.6766 85.0918 80.235 83.6425L15.3515 18.4344C13.9095 16.9852 13.9095 15.5361 15.3515 14.0869Z" fill="black"/>
</svg>
