<svg width="100" height="100" viewBox="0 0 100 100" fill="none" xmlns="http://www.w3.org/2000/svg">
<rect width="100" height="100" fill="white"/>
<path d="M9.22314 50.0005C9.2234 48.3438 10.5664 47.0005 12.2231 47.0005C13.8798 47.0005 15.2229 48.3438 15.2231 50.0005C15.2231 69.5247 30.9903 85.3343 50.4175 85.3345C69.8445 85.3345 85.6118 69.5248 85.6118 50.0005C85.6116 30.4762 69.8443 14.6675 50.4175 14.6675C39.3471 14.6676 29.465 19.7988 23.0093 27.8345H29.5854C31.2421 27.8347 32.5854 29.1778 32.5854 30.8345C32.5852 32.491 31.242 33.8342 29.5854 33.8345H15.6958C14.0392 33.8343 12.696 32.4911 12.6958 30.8345V16.895C12.6958 15.2383 14.0391 13.8952 15.6958 13.895C17.3527 13.895 18.6958 15.2382 18.6958 16.895V23.6313C26.2477 14.4957 37.6511 8.66757 50.4175 8.66748C73.1786 8.66748 91.6116 27.1831 91.6118 50.0005C91.6118 72.8179 73.1788 91.3345 50.4175 91.3345C27.6562 91.3343 9.22314 72.8179 9.22314 50.0005ZM50.4272 24.0005C52.0841 24.0006 53.4274 25.3436 53.4272 27.0005L53.4253 48.7769L68.7437 64.1519C69.9128 65.3255 69.9093 67.2247 68.7358 68.394C67.5621 69.5635 65.6621 69.5599 64.4927 68.3862L48.3003 52.1343C47.74 51.5719 47.4252 50.81 47.4253 50.0161L47.4272 26.9995C47.4276 25.3429 48.7707 24.0005 50.4272 24.0005Z" fill="black"/>
</svg>
