<svg width="100" height="100" viewBox="0 0 100 100" fill="none" xmlns="http://www.w3.org/2000/svg">
<g clip-path="url(#clip0_349_351)">
<rect width="100" height="100" fill="white"/>
<path d="M70.5401 12.2275C71.603 12.2275 72.587 12.79 73.126 13.7061L94.1671 49.4775C94.7193 50.4164 94.7193 51.5807 94.1671 52.5195L73.126 88.29C72.587 89.2063 71.6032 89.7686 70.5401 89.7686H28.4571C27.3941 89.7685 26.4102 89.2063 25.8712 88.29L4.82917 52.5195C4.27698 51.5807 4.27701 50.4163 4.82917 49.4775L25.8712 13.7061L25.9776 13.5391C26.5337 12.7222 27.4604 12.2276 28.4571 12.2275H70.5401ZM10.8956 50.998L30.1729 83.7686H68.8253L88.1007 50.998L68.8253 18.2275H30.1729L10.8956 50.998ZM57.0186 50.998C57.0184 46.8444 53.6513 43.4775 49.4981 43.4775C45.3447 43.4777 41.9778 46.8446 41.9776 50.998C41.9776 55.1512 45.3445 58.5184 49.4981 58.5186C53.6515 58.5186 57.0186 55.1514 57.0186 50.998ZM63.0186 50.998C63.0186 58.4652 56.9652 64.5186 49.4981 64.5186C42.0309 64.5184 35.9776 58.4651 35.9776 50.998C35.9778 43.5309 42.031 37.4777 49.4981 37.4775C56.9652 37.4775 63.0184 43.5309 63.0186 50.998Z" fill="black"/>
</g>
<defs>
<clipPath id="clip0_349_351">
<rect width="100" height="100" fill="white"/>
</clipPath>
</defs>
</svg>
