<svg width="100" height="100" viewBox="0 0 100 100" fill="none" xmlns="http://www.w3.org/2000/svg">
<mask id="mask0_349_296" style="mask-type:luminance" maskUnits="userSpaceOnUse" x="5" y="5" width="90" height="90">
<path d="M95 5H5V95H95V5Z" fill="white"/>
</mask>
<g mask="url(#mask0_349_296)">
<path d="M58.9585 9.49854L59.1646 9.50537C60.1881 9.57566 61.1109 10.1664 61.6011 11.0786L66.7954 20.7485H87.5015C89.1583 20.7485 90.5015 22.0917 90.5015 23.7485C90.5015 25.4054 89.1583 26.7485 87.5015 26.7485H81.1245V87.4985C81.1245 89.1554 79.7814 90.4985 78.1245 90.4985H21.8745C20.2177 90.4985 18.8745 89.1553 18.8745 87.4985V26.7485H12.5015C10.8446 26.7485 9.50146 25.4054 9.50146 23.7485C9.50146 22.0917 10.8446 20.7485 12.5015 20.7485H33.2241L38.5376 11.0562L38.6421 10.8804C39.1909 10.0233 40.1414 9.49854 41.1685 9.49854H58.9585ZM24.8745 84.4985H75.1245V26.7485H24.8745V84.4985ZM39.4976 66.8755V42.5005C39.4976 40.8437 40.8408 39.5006 42.4976 39.5005C44.1544 39.5005 45.4976 40.8436 45.4976 42.5005V66.8755C45.4976 68.5323 44.1544 69.8755 42.4976 69.8755C40.8408 69.8753 39.4976 68.5322 39.4976 66.8755ZM54.5015 66.8755V42.5005C54.5015 40.8436 55.8446 39.5005 57.5015 39.5005C59.1583 39.5005 60.5015 40.8436 60.5015 42.5005V66.8755C60.5015 68.5323 59.1583 69.8755 57.5015 69.8755C55.8446 69.8755 54.5015 68.5323 54.5015 66.8755ZM40.0679 20.7485H59.9849L57.1646 15.4985H42.9458L40.0679 20.7485Z" fill="currentColor"/>
</g>
</svg>
