<svg width="100" height="100" viewBox="0 0 100 100" fill="none" xmlns="http://www.w3.org/2000/svg">
<path d="M47.7222 8.79221C48.8077 7.94361 50.3319 7.94361 51.4175 8.79221L84.5454 34.6887C85.2726 35.2573 85.6978 36.1289 85.6978 37.052V88.8449C85.6975 90.5016 84.3545 91.8449 82.6978 91.8449H16.4419C14.7852 91.8449 13.4421 90.5016 13.4419 88.8449V37.052C13.4419 36.1289 13.867 35.2573 14.5942 34.6887L47.7222 8.79221ZM19.4419 38.5139V85.8449H35.814V60.8362C35.8141 59.1795 37.1572 57.8362 38.814 57.8362H60.3257C61.9824 57.8362 63.3255 59.1795 63.3257 60.8362V85.8449H79.6978V38.5139L49.5698 14.9621L19.4419 38.5139ZM41.814 85.1623H57.3257V63.8362H41.814V85.1623Z" fill="currentColor"/>
</svg>
