<svg width="300" height="300" viewBox="0 0 300 300" fill="none" xmlns="http://www.w3.org/2000/svg">
<path d="M259.916 149.5C259.916 143.402 254.973 138.458 248.875 138.458C242.776 138.458 237.833 143.402 237.833 149.5H259.916ZM149.5 61.1666C155.598 61.1666 160.541 56.2231 160.541 50.1249C160.541 44.0268 155.598 39.0833 149.5 39.0833V61.1666ZM232.312 237.833H66.6871V259.917H232.312V237.833ZM61.1663 232.312V66.6874H39.083V232.312H61.1663ZM237.833 149.5V232.312H259.916V149.5H237.833ZM66.6871 61.1666H149.5V39.0833H66.6871V61.1666ZM66.6871 237.833C63.6381 237.833 61.1663 235.362 61.1663 232.312H39.083C39.083 247.558 51.4418 259.917 66.6871 259.917V237.833ZM232.312 259.917C247.557 259.917 259.916 247.558 259.916 232.312H237.833C237.833 235.362 235.361 237.833 232.312 237.833V259.917ZM61.1663 66.6874C61.1663 63.6384 63.638 61.1666 66.6871 61.1666V39.0833C51.4418 39.0833 39.083 51.442 39.083 66.6874H61.1663Z" fill="black"/>
<path d="M101.699 147.971C109.934 140.424 122.515 140.215 130.996 147.486L200.848 207.363C205.478 211.332 206.013 218.304 202.045 222.934C198.076 227.562 191.115 228.098 186.485 224.131L116.623 164.253L57.5864 218.372C53.0913 222.491 46.1038 222.187 41.9836 217.693C37.8631 213.198 38.1683 206.211 42.6629 202.09L101.699 147.971Z" fill="black"/>
<path d="M190.13 153.986C197.9 146.216 210.204 145.344 218.995 151.938L255.495 179.315C260.373 182.974 261.364 189.889 257.706 194.767C254.047 199.645 247.132 200.635 242.254 196.978L205.743 169.6L179.39 195.953C175.078 200.265 168.088 200.265 163.776 195.953C159.464 191.641 159.465 184.652 163.776 180.34L190.13 153.986Z" fill="black"/>
<path d="M210.229 116.375V50.1249C210.229 44.0268 215.172 39.0833 221.27 39.0833C227.369 39.0833 232.312 44.0268 232.312 50.1249V116.375C232.312 122.473 227.369 127.417 221.27 127.417C215.172 127.417 210.229 122.473 210.229 116.375Z" fill="black"/>
<path d="M214.305 41.5633C218.642 38.0261 225.035 38.2756 229.077 42.3181L256.681 69.9223C260.993 74.2343 260.993 81.2238 256.681 85.5359C252.369 89.8479 245.38 89.8479 241.068 85.5359L221.27 65.7385L201.473 85.5359C197.161 89.8479 190.172 89.8479 185.86 85.5359C181.547 81.2238 181.547 74.2343 185.86 69.9223L213.464 42.3181L214.305 41.5633Z" fill="black"/>
</svg>
