<svg width="300" height="300" viewBox="0 0 300 300" fill="none" xmlns="http://www.w3.org/2000/svg">
<path d="M187.137 73.2479H213.064V47.7546C213.064 44.0505 216.167 41 219.934 41C223.701 41 226.803 44.0505 226.803 47.7546V73.2479H252.73C256.497 73.2479 259.599 76.2984 259.599 80.0025C259.599 83.7066 256.497 86.7571 252.73 86.7571H226.803V112.25C226.803 115.955 223.701 119.005 219.934 119.005C216.167 119.005 213.064 115.955 213.064 112.25V86.7571H187.137C183.37 86.7571 180.268 83.7066 180.268 80.0025C180.268 76.2984 183.37 73.2479 187.137 73.2479ZM253.727 106.149C249.96 106.149 246.858 109.2 246.858 112.904V231.219C246.858 239.063 240.321 245.491 232.343 245.491H67.2536C59.2761 245.491 52.739 239.063 52.739 231.219V68.7811C52.739 60.937 59.2761 54.5092 67.2536 54.5092H187.47C191.237 54.5092 194.339 51.4588 194.339 47.7546C194.339 44.0505 191.237 41 187.47 41H67.2536C51.631 41 39 53.4198 39 68.7811V231.219C39 246.471 51.631 259 67.2536 259H232.454C247.966 259 260.707 246.58 260.707 231.219V112.904C260.597 109.2 257.494 106.149 253.727 106.149ZM132.514 190.473L182.816 161.93C187.248 159.424 189.797 154.957 189.797 149.946C189.797 144.934 187.137 140.467 182.816 137.962L132.514 109.418C128.082 106.912 122.874 106.912 118.442 109.418C114.01 111.924 111.462 116.39 111.462 121.402V178.489C111.462 183.501 114.121 187.967 118.442 190.473C120.658 191.672 123.096 192.325 125.423 192.325C127.971 192.325 130.298 191.672 132.514 190.473ZM125.644 121.184L175.947 149.728C176.058 149.728 176.058 149.728 176.058 149.837C176.058 149.946 176.058 149.946 175.947 149.946L125.644 178.489H125.423C125.312 178.489 125.312 178.38 125.312 178.38V121.402C125.312 121.293 125.312 121.293 125.423 121.293C125.423 121.184 125.533 121.184 125.644 121.184C125.533 121.184 125.533 121.184 125.644 121.184Z" fill="black"/>
<path d="M35 231.219V68.7812C35 51.1475 49.4861 37 67.2539 37L67.2536 41C51.631 41 39 53.4198 39 68.7811V231.219C39 246.233 51.2393 258.608 66.5234 258.991L67.2536 259H232.454C247.966 259 260.707 246.58 260.707 231.219V112.904C260.6 109.316 257.685 106.341 254.078 106.158L253.727 106.149C249.96 106.149 246.858 109.2 246.858 112.904V231.219C246.858 238.94 240.523 245.29 232.716 245.486L232.343 245.491L232.343 241.491C238.175 241.491 242.857 236.79 242.857 231.219V112.904C242.857 106.928 247.815 102.149 253.728 102.149C259.664 102.15 264.531 106.926 264.706 112.784L264.707 112.845V231.219C264.707 248.863 250.101 263 232.454 263H67.2539C49.4758 263 35 248.733 35 231.219ZM52.739 231.219V68.7811C52.739 61.0595 59.0735 54.7101 66.8809 54.5137L67.2536 54.5092H187.47C191.119 54.5092 194.145 51.6463 194.33 48.0996L194.339 47.7546C194.339 44.0505 191.237 41 187.47 41L187.47 37C193.382 37 198.339 41.7783 198.339 47.7549C198.339 53.7314 193.382 58.5088 187.47 58.5088H67.2539C61.4217 58.5088 56.7393 63.2096 56.7393 68.7812V231.219C56.7393 236.79 61.4217 241.491 67.2539 241.491L67.2536 245.491L66.8809 245.486C59.1976 245.293 52.9411 239.141 52.7441 231.586L52.739 231.219ZM232.343 241.491L232.343 245.491H67.2536L67.2539 241.491H232.343ZM107.462 121.401C107.462 114.967 110.77 109.16 116.474 105.936C122.127 102.739 128.829 102.739 134.482 105.936L134.488 105.938L184.79 134.482L184.807 134.492L184.823 134.501C190.339 137.699 193.797 143.463 193.797 149.945C193.797 156.379 190.489 162.186 184.785 165.411L134.452 193.973L134.417 193.992C131.677 195.474 128.701 196.325 125.423 196.325C122.367 196.325 119.28 195.474 116.54 193.992L116.487 193.964L116.436 193.934C110.92 190.735 107.462 184.972 107.462 178.489V121.401ZM125.644 121.184L175.947 149.728L175.764 150.048L125.644 178.489H125.423L125.386 178.484C125.312 178.463 125.312 178.38 125.312 178.38V121.402C125.312 121.293 125.312 121.293 125.423 121.293C125.423 121.184 125.533 121.184 125.644 121.184ZM129.312 171.809L168.033 149.837L129.312 127.864V171.809ZM175.947 149.728C176.058 149.728 176.058 149.728 176.058 149.837L176.056 149.899C176.05 149.946 176.03 149.946 175.947 149.946L175.764 150.048L175.947 149.728ZM209.064 112.25V90.7568H187.138C181.225 90.7568 176.268 85.9793 176.268 80.0029C176.268 74.0263 181.225 69.248 187.138 69.248L187.137 73.2479L186.786 73.2568C183.179 73.4393 180.268 76.4141 180.268 80.0025L180.277 80.3477C180.457 83.7798 183.296 86.5714 186.786 86.748L187.137 86.7571H213.064V112.25L213.073 112.596C213.259 116.142 216.284 119.005 219.934 119.005C223.701 119.005 226.803 115.955 226.803 112.25V86.7571H252.73L253.081 86.748C256.572 86.5715 259.411 83.7799 259.591 80.3477L259.599 80.0025C259.599 76.4141 256.688 73.4392 253.081 73.2568L252.73 73.2479L252.73 69.248C258.643 69.2483 263.6 74.0265 263.6 80.0029C263.599 85.9792 258.643 90.7566 252.73 90.7568H230.803V112.25C230.803 118.227 225.846 123.005 219.934 123.005C214.021 123.005 209.064 118.227 209.064 112.25ZM226.803 47.7546C226.803 44.0505 223.701 41 219.934 41C216.167 41 213.064 44.0505 213.064 47.7546V73.2479H187.137L187.138 69.248H209.064V47.7549C209.064 41.7783 214.021 37 219.934 37C225.846 37 230.803 41.7783 230.803 47.7549V69.248H252.73L252.73 73.2479H226.803V47.7546ZM187.47 37L187.47 41H67.2536L67.2539 37H187.47ZM111.462 178.489C111.462 183.501 114.121 187.967 118.442 190.473C120.52 191.597 122.792 192.241 124.985 192.317L125.423 192.325C127.812 192.325 130.006 191.751 132.097 190.691L132.514 190.473L182.816 161.93C187.11 159.502 189.635 155.234 189.789 150.414L189.797 149.946C189.796 145.091 187.301 140.747 183.217 138.202L182.816 137.962L132.514 109.418C128.082 106.912 122.874 106.912 118.442 109.418L118.032 109.658C113.854 112.203 111.462 116.547 111.462 121.402V178.489Z" fill="black"/>
</svg>
